# This file uses centimeters as units for non-parametric coordinates.

mtllib Dagger.mtl
g default
v 0.056535 0.197186 -0.014009
v 0.048092 0.197186 -0.026646
v 0.034941 0.197186 -0.036675
v 0.018369 0.197186 -0.043114
v 0.000000 0.197186 -0.045333
v -0.018369 0.197186 -0.043114
v -0.034941 0.197186 -0.036675
v -0.048092 0.197186 -0.026646
v -0.056535 0.197186 -0.014009
v -0.059445 0.197186 -0.000000
v -0.056535 0.197186 0.014009
v -0.048092 0.197186 0.026646
v -0.034941 0.197186 0.036675
v -0.018369 0.197186 0.043114
v -0.000000 0.197186 0.045333
v 0.018369 0.197186 0.043114
v 0.034941 0.197186 0.036675
v 0.048092 0.197186 0.026646
v 0.056535 0.197186 0.014009
v 0.059445 0.197186 -0.000000
v 0.056535 0.217187 -0.014009
v 0.048092 0.217187 -0.026646
v 0.034941 0.217187 -0.036675
v 0.018369 0.217187 -0.043114
v 0.000000 0.217187 -0.045333
v -0.018369 0.217187 -0.043114
v -0.034941 0.217187 -0.036675
v -0.048092 0.217187 -0.026646
v -0.056535 0.217187 -0.014009
v -0.059445 0.217187 -0.000000
v -0.056535 0.217187 0.014009
v -0.048092 0.217187 0.026646
v -0.034941 0.217187 0.036675
v -0.018369 0.217187 0.043114
v -0.000000 0.217187 0.045333
v 0.018369 0.217187 0.043114
v 0.034941 0.217187 0.036675
v 0.048092 0.217187 0.026646
v 0.056535 0.217187 0.014009
v 0.059445 0.217187 -0.000000
v 0.000000 0.197186 -0.000000
v 0.000000 0.217187 -0.000000
v 0.029631 -0.002813 -0.009368
v 0.022678 -0.002813 -0.017310
v 0.012273 -0.002813 -0.022617
v 0.000000 -0.002813 -0.024480
v -0.012273 -0.002813 -0.022617
v -0.022678 -0.002813 -0.017310
v -0.029631 -0.002813 -0.009368
v -0.032072 -0.002813 -0.000000
v -0.029631 -0.002813 0.009368
v -0.022678 -0.002813 0.017310
v -0.012273 -0.002813 0.022617
v -0.000000 -0.002813 0.024480
v 0.012273 -0.002813 0.022617
v 0.022678 -0.002813 0.017310
v 0.029631 -0.002813 0.009368
v 0.032072 -0.002813 0.000000
v 0.029631 0.197186 -0.009368
v 0.022678 0.197186 -0.017310
v 0.012273 0.197186 -0.022617
v 0.000000 0.197186 -0.024480
v -0.012273 0.197186 -0.022617
v -0.022678 0.197186 -0.017310
v -0.029631 0.197186 -0.009368
v -0.032072 0.197186 -0.000000
v -0.029631 0.197186 0.009368
v -0.022678 0.197186 0.017310
v -0.012273 0.197186 0.022617
v -0.000000 0.197186 0.024480
v 0.012273 0.197186 0.022617
v 0.022678 0.197186 0.017310
v 0.029631 0.197186 0.009368
v 0.032072 0.197186 0.000000
v 0.000000 -0.002813 0.000000
v 0.000000 0.197186 0.000000
v -0.037105 0.217186 0.015525
v 0.031192 0.217186 0.014231
v -0.037105 0.563013 0.013273
v 0.031192 0.489044 0.014231
v -0.037105 0.563013 -0.013273
v 0.031192 0.489044 -0.014231
v -0.037105 0.217186 -0.015525
v 0.031192 0.217186 -0.014231
v -0.040919 0.217186 -0.000000
v 0.001857 0.555112 0.014231
v 0.000000 0.217186 0.016831
v 0.000000 0.217186 -0.000000
v 0.000000 0.217186 -0.016831
v 0.001857 0.555112 -0.014231
v 0.016116 0.536066 0.014231
v 0.018064 0.217186 0.016831
v 0.012822 0.217186 -0.000000
v 0.018064 0.217186 -0.016831
v 0.016116 0.536066 -0.014231
v -0.040919 0.353115 -0.000000
v -0.037105 0.353115 0.015525
v 0.000000 0.353115 0.016831
v 0.018064 0.353115 0.016831
v 0.031192 0.353115 0.014231
v 0.031192 0.353115 -0.014231
v 0.018064 0.353115 -0.016831
v 0.000000 0.353115 -0.016831
v -0.037105 0.353115 -0.015525
v -0.012822 0.563516 0.014231
v -0.012822 0.563516 -0.014231
v -0.012822 0.353115 -0.016831
v -0.012822 0.217186 -0.016831
v -0.012822 0.217186 -0.000000
v -0.012822 0.217186 0.016831
v -0.012822 0.353115 0.016831
v 0.039678 0.497075 -0.008415
v 0.042808 0.500037 -0.000000
v 0.039678 0.497075 0.008415
v 0.017090 0.548767 0.008415
v 0.017436 0.553279 -0.000000
v 0.017090 0.548767 -0.008415
v 0.039748 0.217186 -0.000000
v 0.039678 0.217186 -0.008415
v 0.043184 0.217186 -0.000000
v 0.039678 0.217186 0.008415
v 0.039678 0.353115 0.008415
v 0.043184 0.353115 -0.000000
v 0.039678 0.353115 -0.008415
v 0.000928 0.566460 -0.008415
v 0.000582 0.570690 -0.000000
v 0.000928 0.566460 0.008415
v -0.012822 0.575747 0.008415
v -0.012822 0.580171 -0.000000
v -0.012822 0.575747 -0.008415
v -0.040919 0.579971 -0.000000
v -0.040919 0.575496 -0.008415
v -0.040919 0.579560 -0.000000
v -0.040919 0.575496 0.008415
vt 0.636929 0.324153
vt 0.622775 0.296987
vt 0.425120 0.600530
vt 0.407844 0.625827
vt 0.598619 0.274016
vt 0.451829 0.580586
vt 0.566824 0.257491
vt 0.485359 0.567947
vt 0.530504 0.249028
vt 0.522426 0.563850
vt 0.493213 0.249457
vt 0.559403 0.568697
vt 0.458602 0.258735
vt 0.592670 0.582013
vt 0.430059 0.275953
vt 0.618970 0.602494
vt 0.410378 0.299427
vt 0.635729 0.628136
vt 0.401486 0.326859
vt 0.641307 0.656429
vt 0.404252 0.355563
vt 0.635157 0.684602
vt 0.418406 0.382730
vt 0.617882 0.709900
vt 0.442562 0.405700
vt 0.591172 0.729844
vt 0.474357 0.422226
vt 0.557643 0.742483
vt 0.510677 0.430688
vt 0.520575 0.746579
vt 0.547968 0.430260
vt 0.483598 0.741733
vt 0.582578 0.420982
vt 0.450332 0.728417
vt 0.611121 0.403763
vt 0.424032 0.707936
vt 0.630802 0.380289
vt 0.407272 0.682294
vt 0.639695 0.352858
vt 0.401695 0.654001
vt 0.520590 0.339858
vt 0.521501 0.655215
vt 0.175911 0.515442
vt 0.203640 0.515377
vt 0.786404 0.514001
vt 0.756948 0.514070
vt 0.724895 0.514146
vt 0.690439 0.514227
vt 0.654578 0.514312
vt 0.618718 0.514397
vt 0.584262 0.514478
vt 0.552208 0.514554
vt 0.522752 0.514623
vt 0.495023 0.514689
vt 0.467293 0.514754
vt 0.437837 0.514824
vt 0.405783 0.514899
vt 0.371327 0.514981
vt 0.335467 0.515066
vt 0.299606 0.515150
vt 0.265150 0.515232
vt 0.233097 0.515307
vt 0.814042 0.475173
vt 0.203549 0.476615
vt 0.786313 0.475239
vt 0.756857 0.475308
vt 0.724803 0.475384
vt 0.690347 0.475466
vt 0.654487 0.475550
vt 0.618626 0.475635
vt 0.584170 0.475716
vt 0.552116 0.475792
vt 0.522660 0.475861
vt 0.494931 0.475927
vt 0.467202 0.475992
vt 0.437746 0.476062
vt 0.405692 0.476138
vt 0.371236 0.476219
vt 0.335375 0.476304
vt 0.299515 0.476388
vt 0.265059 0.476470
vt 0.233005 0.476545
vt 0.175820 0.476680
vt 0.814134 0.513935
vt 0.280798 0.644537
vt 0.281113 0.624451
vt 0.661701 0.630425
vt 0.661385 0.650511
vt 0.281462 0.602225
vt 0.662050 0.608199
vt 0.281833 0.578601
vt 0.662420 0.584576
vt 0.282203 0.554978
vt 0.662791 0.560953
vt 0.282552 0.532752
vt 0.663140 0.538727
vt 0.282868 0.512666
vt 0.663455 0.518641
vt 0.283157 0.494244
vt 0.663745 0.500218
vt 0.283446 0.475821
vt 0.664034 0.481796
vt 0.283761 0.455735
vt 0.664349 0.461710
vt 0.284110 0.433509
vt 0.664698 0.439484
vt 0.284481 0.409886
vt 0.665069 0.415860
vt 0.284852 0.386263
vt 0.665440 0.392237
vt 0.285201 0.364036
vt 0.665789 0.370011
vt 0.285516 0.343951
vt 0.666104 0.349925
vt 0.285805 0.325528
vt 0.666393 0.331503
vt 0.280508 0.662959
vt 0.661096 0.668934
vt 0.428383 0.267924
vt 0.411227 0.246030
vt 0.490537 0.225625
vt 0.455001 0.283379
vt 0.487029 0.290041
vt 0.519591 0.286896
vt 0.547730 0.274423
vt 0.567162 0.254521
vt 0.574928 0.230220
vt 0.569846 0.205220
vt 0.552690 0.183325
vt 0.526072 0.167871
vt 0.494044 0.161209
vt 0.461482 0.164354
vt 0.433343 0.176827
vt 0.413911 0.196729
vt 0.406145 0.221030
vt 0.421525 0.740563
vt 0.440229 0.719975
vt 0.499140 0.766686
vt 0.467901 0.706499
vt 0.500329 0.702186
vt 0.532576 0.707692
vt 0.559732 0.722179
vt 0.577664 0.743442
vt 0.583642 0.768244
vt 0.576754 0.792808
vt 0.558050 0.813396
vt 0.530378 0.826872
vt 0.497950 0.831186
vt 0.465703 0.825680
vt 0.438547 0.811192
vt 0.420615 0.789929
vt 0.414638 0.765127
vt 0.669293 0.487655
vt 0.693755 0.487513
vt 0.693313 0.736056
vt 0.665813 0.821754
vt 0.423468 0.825313
vt 0.393262 0.740802
vt 0.384897 0.492563
vt 0.409360 0.491889
vt 0.533439 0.148770
vt 0.532506 0.099674
vt 0.547866 0.099514
vt 0.558779 0.114800
vt 0.563991 0.138667
vt 0.539407 0.488825
vt 0.568553 0.488382
vt 0.570468 0.866179
vt 0.559792 0.887801
vt 0.545710 0.899246
vt 0.510175 0.489263
vt 0.531373 0.887396
vt 0.520061 0.866289
vt 0.502528 0.139832
vt 0.506828 0.115787
vt 0.517151 0.100099
vt 0.612917 0.488031
vt 0.613889 0.870909
vt 0.535098 0.243864
vt 0.534315 0.195311
vt 0.565175 0.195280
vt 0.564047 0.240795
vt 0.506249 0.241786
vt 0.503448 0.196399
vt 0.476880 0.872412
vt 0.465759 0.490396
vt 0.636301 0.487871
vt 0.640256 0.856599
vt 0.533871 0.172104
vt 0.564685 0.171691
vt 0.503095 0.172847
vt 0.450100 0.859088
vt 0.442367 0.490996
vt 0.608591 0.240030
vt 0.632051 0.239694
vt 0.665096 0.239208
vt 0.689560 0.238859
vt 0.380785 0.244048
vt 0.405238 0.243571
vt 0.438267 0.242946
vt 0.461738 0.242510
vt 0.711802 0.751152
vt 0.727637 0.758176
vt 0.681834 0.861775
vt 0.671430 0.847147
vt 0.359669 0.764039
vt 0.375265 0.756486
vt 0.418666 0.850814
vt 0.408772 0.865801
vt 0.708350 0.238591
vt 0.724989 0.238350
vt 0.729235 0.487339
vt 0.712569 0.487412
vt 0.345370 0.244735
vt 0.362002 0.244414
vt 0.366084 0.493091
vt 0.349422 0.493578
vt 0.639346 0.880902
vt 0.643485 0.898043
vt 0.608446 0.913449
vt 0.610393 0.895766
vt 0.448265 0.900506
vt 0.451813 0.883273
vt 0.481194 0.897350
vt 0.483311 0.913851
vt 0.532386 0.093405
vt 0.532388 0.093405
vt 0.546640 0.900192
vt 0.544843 0.900291
vn 0.919978 0.000000 -0.391970
vn 0.724018 0.000000 -0.689781
vn 0.724018 0.000000 -0.689781
vn 0.919978 0.000000 -0.391970
vn 0.484646 0.000000 -0.874711
vn 0.484646 0.000000 -0.874711
vn 0.240511 0.000000 -0.970646
vn 0.240511 0.000000 -0.970646
vn 0.000000 0.000000 -1.000000
vn 0.000000 0.000000 -1.000000
vn -0.240512 0.000000 -0.970646
vn -0.240512 0.000000 -0.970646
vn -0.484646 0.000000 -0.874710
vn -0.484646 0.000000 -0.874710
vn -0.724018 0.000000 -0.689781
vn -0.724018 0.000000 -0.689781
vn -0.919978 0.000000 -0.391971
vn -0.919978 0.000000 -0.391971
vn -1.000000 0.000000 0.000000
vn -1.000000 0.000000 0.000000
vn -0.919978 0.000000 0.391971
vn -0.919978 0.000000 0.391971
vn -0.724018 0.000000 0.689781
vn -0.724018 0.000000 0.689781
vn -0.484646 0.000000 0.874711
vn -0.484646 0.000000 0.874711
vn -0.240512 0.000000 0.970646
vn -0.240512 0.000000 0.970646
vn 0.000000 0.000000 1.000000
vn 0.000000 0.000000 1.000000
vn 0.240512 0.000000 0.970646
vn 0.240512 0.000000 0.970646
vn 0.484646 0.000000 0.874711
vn 0.484646 0.000000 0.874711
vn 0.724018 0.000000 0.689781
vn 0.724018 0.000000 0.689781
vn 0.919978 0.000000 0.391971
vn 0.919978 0.000000 0.391971
vn 1.000000 0.000000 0.000001
vn 1.000000 0.000000 0.000001
vn 0.000000 -1.000000 0.000000
vn 0.000000 -1.000000 0.000000
vn 0.000000 -1.000000 -0.000000
vn 0.000000 -1.000000 0.000000
vn 0.000000 -1.000000 0.000000
vn 0.000000 -1.000000 0.000000
vn 0.000000 -1.000000 0.000000
vn 0.000000 -1.000000 0.000000
vn 0.000000 -1.000000 0.000001
vn 0.000000 -1.000000 -0.000000
vn 0.000000 -1.000000 0.000000
vn 0.000000 -1.000000 0.000000
vn 0.000000 -1.000000 -0.000001
vn 0.000000 -1.000000 0.000000
vn 0.000000 -1.000000 -0.000000
vn 0.000000 -1.000000 0.000000
vn 0.000000 -1.000000 -0.000001
vn 0.000000 -1.000000 -0.000000
vn 0.000000 -1.000000 0.000000
vn 0.000000 -1.000000 0.000000
vn 0.000000 -1.000000 0.000000
vn 0.000000 1.000000 0.000000
vn 0.000000 1.000000 0.000000
vn 0.000000 1.000000 0.000000
vn 0.000000 1.000000 0.000000
vn 0.000000 1.000000 0.000001
vn 0.000000 1.000000 0.000000
vn 0.000000 1.000000 0.000000
vn 0.000000 1.000000 0.000000
vn 0.000000 1.000000 0.000000
vn 0.000000 1.000000 0.000000
vn 0.000000 1.000000 0.000000
vn 0.000000 1.000000 0.000000
vn 0.000000 1.000000 0.000001
vn 0.000000 1.000000 0.000001
vn 0.000000 1.000000 0.000000
vn 0.000000 1.000000 0.000000
vn 0.000000 1.000000 0.000000
vn 0.000000 1.000000 -0.000001
vn 0.000000 1.000000 -0.000000
vn 0.000000 1.000000 0.000001
vn 0.000000 1.000000 0.000001
vn 0.878925 0.000000 -0.476960
vn 0.606744 0.000000 -0.794898
vn 0.606744 0.000000 -0.794898
vn 0.878925 0.000000 -0.476960
vn 0.301460 0.000000 -0.953479
vn 0.301460 0.000000 -0.953479
vn 0.000000 0.000000 -1.000000
vn 0.000000 0.000000 -1.000000
vn -0.301459 0.000000 -0.953479
vn -0.301459 0.000000 -0.953479
vn -0.606743 0.000000 -0.794898
vn -0.606743 0.000000 -0.794898
vn -0.878925 0.000000 -0.476961
vn -0.878925 0.000000 -0.476961
vn -1.000000 0.000000 -0.000001
vn -1.000000 0.000000 -0.000001
vn -0.878925 0.000000 0.476960
vn -0.878925 0.000000 0.476960
vn -0.606743 0.000000 0.794898
vn -0.606743 0.000000 0.794898
vn -0.301460 0.000000 0.953479
vn -0.301460 0.000000 0.953479
vn 0.000000 0.000000 1.000000
vn 0.000000 0.000000 1.000000
vn 0.301459 0.000000 0.953479
vn 0.301459 0.000000 0.953479
vn 0.606743 0.000000 0.794898
vn 0.606743 0.000000 0.794898
vn 0.878925 0.000000 0.476961
vn 0.878925 0.000000 0.476961
vn 1.000000 0.000000 0.000000
vn 1.000000 0.000000 0.000000
vn 0.000000 -1.000000 -0.000000
vn 0.000000 -1.000000 0.000000
vn 0.000000 -1.000000 0.000000
vn 0.000000 -1.000000 -0.000000
vn 0.000000 -1.000000 -0.000000
vn 0.000000 -1.000000 -0.000000
vn 0.000000 -1.000000 0.000000
vn 0.000000 -1.000000 0.000000
vn 0.000000 -1.000000 0.000000
vn 0.000000 -1.000000 0.000000
vn 0.000000 -1.000000 0.000000
vn 0.000000 -1.000000 0.000000
vn 0.000000 -1.000000 0.000000
vn 0.000000 -1.000000 0.000000
vn 0.000000 -1.000000 0.000000
vn 0.000000 -1.000000 0.000000
vn 0.000000 -1.000000 0.000000
vn 0.000000 1.000000 0.000000
vn 0.000000 1.000000 0.000000
vn 0.000000 1.000000 0.000000
vn 0.000000 1.000000 0.000001
vn 0.000000 1.000000 0.000000
vn 0.000000 1.000000 -0.000001
vn 0.000000 1.000000 0.000002
vn 0.000000 1.000000 -0.000000
vn 0.000000 1.000000 0.000000
vn 0.000000 1.000000 0.000002
vn 0.000000 1.000000 0.000000
vn 0.000000 1.000000 0.000000
vn 0.000000 1.000000 0.000000
vn 0.000000 1.000000 0.000000
vn 0.000000 1.000000 0.000000
vn 0.000000 1.000000 0.000000
vn 0.000000 1.000000 0.000000
vn 0.064382 0.006410 0.997905
vn 0.145891 0.004836 0.989289
vn 0.106277 0.008758 0.994298
vn 0.015754 0.013140 0.999790
vn 0.015754 0.013140 -0.999790
vn 0.106277 0.008758 -0.994298
vn 0.145891 0.004836 -0.989289
vn 0.064382 0.006410 -0.997905
vn 0.000000 -1.000000 0.000000
vn 0.000000 -1.000000 -0.000000
vn 0.000000 -1.000000 0.000000
vn 0.000000 -1.000000 0.000000
vn 0.000000 -1.000000 0.000000
vn -0.999998 -0.002224 0.000000
vn -0.969206 -0.002150 0.246243
vn -0.967893 -0.003583 0.251339
vn -0.967893 -0.003583 0.251337
vn -0.999993 -0.003698 0.000000
vn -0.969206 -0.002150 -0.246243
vn -0.967893 -0.003583 -0.251337
vn -0.967893 -0.003583 -0.251339
vn 0.000000 -1.000000 0.000000
vn 0.000000 -1.000000 0.000000
vn 0.000000 -1.000000 -0.000000
vn -0.049464 0.007003 0.998751
vn -0.031191 0.007286 0.999487
vn -0.032880 0.011826 0.999389
vn -0.046702 0.011533 0.998842
vn 0.000000 -1.000000 0.000000
vn 0.000000 -1.000000 0.000000
vn 0.000000 -1.000000 -0.000000
vn 0.000000 -1.000000 -0.000001
vn 0.000000 -1.000000 0.000001
vn 0.000000 -1.000000 0.000000
vn -0.046702 0.011533 -0.998842
vn -0.032880 0.011826 -0.999389
vn -0.031191 0.007286 -0.999487
vn -0.049464 0.007003 -0.998751
vn 0.003510 0.007663 0.999964
vn 0.004899 0.012828 0.999906
vn 0.000000 -1.000000 0.000000
vn 0.000000 -1.000000 0.000000
vn 0.000000 -1.000000 0.000000
vn 0.004899 0.012828 -0.999906
vn 0.003510 0.007663 -0.999964
vn -1.000000 0.000000 0.000000
vn -0.971121 0.000000 0.238589
vn -0.053731 0.000000 0.998555
vn -0.035193 0.000000 0.999381
vn 0.000000 0.000000 1.000000
vn 0.083084 0.000000 0.996543
vn 0.194310 0.000000 0.980940
vn 0.194310 0.000000 -0.980940
vn 0.083084 0.000000 -0.996543
vn 0.000000 0.000000 -1.000000
vn -0.035193 0.000000 -0.999381
vn -0.053731 0.000000 -0.998555
vn -0.971121 0.000000 -0.238589
vn 0.806389 0.094580 0.583773
vn 0.919563 0.139541 0.367330
vn 0.793822 0.499171 0.347383
vn 0.724936 0.410949 0.552801
vn 0.919563 0.139541 -0.367330
vn 0.806389 0.094580 -0.583773
vn 0.724936 0.410949 -0.552801
vn 0.793822 0.499171 -0.347383
vn 0.764702 0.000000 0.644384
vn 0.923092 0.000000 0.384580
vn 0.926808 0.000619 0.375534
vn 0.769147 0.000306 0.639072
vn 0.923092 0.000000 -0.384580
vn 0.764702 0.000000 -0.644384
vn 0.769147 0.000306 -0.639072
vn 0.926808 0.000619 -0.375534
vn 0.513855 0.585561 0.626954
vn 0.606454 0.708717 0.360464
vn 0.525841 0.760782 0.380397
vn 0.137381 0.664350 0.734688
vn 0.606454 0.708717 -0.360462
vn 0.513855 0.585561 -0.626954
vn 0.137381 0.664350 -0.734688
vn 0.525842 0.760783 -0.380395
vn 0.535696 0.229678 0.812575
vn 0.563606 0.033604 0.825360
vn 0.565334 0.000000 0.824862
vn 0.535697 0.229678 -0.812574
vn 0.563606 0.033604 -0.825360
vn 0.565334 0.000000 -0.824862
vn -0.022484 0.393478 0.919059
vn 0.099019 0.414934 0.904448
vn -0.016069 0.665472 0.746250
vn -0.016069 0.665471 -0.746250
vn 0.099018 0.414933 -0.904448
vn -0.022484 0.393478 -0.919059
vn 0.415525 0.399564 0.817122
vn 0.415524 0.399564 -0.817122
vn 0.565334 0.000000 0.824862
vn 0.565334 0.000000 -0.824862
vn 0.000000 -1.000000 -0.000001
vn -1.000000 0.000000 0.000000
vn -0.007112 0.883998 0.467437
vn -0.007112 0.883998 0.467437
vn -0.007112 0.883998 -0.467437
vn -0.007112 0.883998 -0.467437
s 1
g Cross_Guard1
usemtl blinn1SG
f 1/64/1 2/82/2 22/62/3 21/44/4
f 2/82/2 3/81/5 23/61/6 22/62/3
f 3/81/5 4/80/7 24/60/8 23/61/6
f 4/80/7 5/79/9 25/59/10 24/60/8
f 5/79/9 6/78/11 26/58/12 25/59/10
f 6/78/11 7/77/13 27/57/14 26/58/12
f 7/77/13 8/76/15 28/56/16 27/57/14
f 8/76/15 9/75/17 29/55/18 28/56/16
f 9/75/17 10/74/19 30/54/20 29/55/18
f 10/74/19 11/73/21 31/53/22 30/54/20
f 11/73/21 12/72/23 32/52/24 31/53/22
f 12/72/23 13/71/25 33/51/26 32/52/24
f 13/71/25 14/70/27 34/50/28 33/51/26
f 14/70/27 15/69/29 35/49/30 34/50/28
f 15/69/29 16/68/31 36/48/32 35/49/30
f 16/68/31 17/67/33 37/47/34 36/48/32
f 17/67/33 18/66/35 38/46/36 37/47/34
f 18/66/35 19/65/37 39/45/38 38/46/36
f 19/65/37 20/63/39 40/84/40 39/45/38
f 20/83/39 1/64/1 21/44/4 40/43/40
s 2
f 2/2/41 1/1/42 41/41/43
f 3/5/44 2/2/41 41/41/43
f 4/7/45 3/5/44 41/41/43
f 5/9/46 4/7/45 41/41/43
f 6/11/47 5/9/46 41/41/43
f 7/13/48 6/11/47 41/41/43
f 8/15/49 7/13/48 41/41/43
f 9/17/50 8/15/49 41/41/43
f 10/19/51 9/17/50 41/41/43
f 11/21/52 10/19/51 41/41/43
f 12/23/53 11/21/52 41/41/43
f 13/25/54 12/23/53 41/41/43
f 14/27/55 13/25/54 41/41/43
f 15/29/56 14/27/55 41/41/43
f 16/31/57 15/29/56 41/41/43
f 17/33/58 16/31/57 41/41/43
f 18/35/59 17/33/58 41/41/43
f 19/37/60 18/35/59 41/41/43
f 20/39/61 19/37/60 41/41/43
f 1/1/42 20/39/61 41/41/43
s 3
f 21/4/62 22/3/63 42/42/64
f 22/3/63 23/6/65 42/42/64
f 23/6/65 24/8/66 42/42/64
f 24/8/66 25/10/67 42/42/64
f 25/10/67 26/12/68 42/42/64
f 26/12/68 27/14/69 42/42/64
f 27/14/69 28/16/70 42/42/64
f 28/16/70 29/18/71 42/42/64
f 29/18/71 30/20/72 42/42/64
f 30/20/72 31/22/73 42/42/64
f 31/22/73 32/24/74 42/42/64
f 32/24/74 33/26/75 42/42/64
f 33/26/75 34/28/76 42/42/64
f 34/28/76 35/30/77 42/42/64
f 35/30/77 36/32/78 42/42/64
f 36/32/78 37/34/79 42/42/64
f 37/34/79 38/36/80 42/42/64
f 38/36/80 39/38/81 42/42/64
f 39/38/81 40/40/82 42/42/64
f 40/40/82 21/4/62 42/42/64
s 4
usemtl lambert2SG
f 43/85/83 44/86/84 60/87/85 59/88/86
f 44/86/84 45/89/87 61/90/88 60/87/85
f 45/89/87 46/91/89 62/92/90 61/90/88
f 46/91/89 47/93/91 63/94/92 62/92/90
f 47/93/91 48/95/93 64/96/94 63/94/92
f 48/95/93 49/97/95 65/98/96 64/96/94
f 49/97/95 50/99/97 66/100/98 65/98/96
f 50/99/97 51/101/99 67/102/100 66/100/98
f 51/101/99 52/103/101 68/104/102 67/102/100
f 52/103/101 53/105/103 69/106/104 68/104/102
f 53/105/103 54/107/105 70/108/106 69/106/104
f 54/107/105 55/109/107 71/110/108 70/108/106
f 55/109/107 56/111/109 72/112/110 71/110/108
f 56/111/109 57/113/111 73/114/112 72/112/110
f 57/113/111 58/115/113 74/116/114 73/114/112
f 58/117/113 43/85/83 59/88/86 74/118/114
s 5
f 44/119/115 43/120/116 75/121/117
f 45/122/118 44/119/115 75/121/117
f 46/123/119 45/122/118 75/121/117
f 47/124/120 46/123/119 75/121/117
f 48/125/121 47/124/120 75/121/117
f 49/126/122 48/125/121 75/121/117
f 50/127/123 49/126/122 75/121/117
f 51/128/124 50/127/123 75/121/117
f 52/129/125 51/128/124 75/121/117
f 53/130/126 52/129/125 75/121/117
f 54/131/127 53/130/126 75/121/117
f 55/132/128 54/131/127 75/121/117
f 56/133/129 55/132/128 75/121/117
f 57/134/130 56/133/129 75/121/117
f 58/135/131 57/134/130 75/121/117
f 43/120/116 58/135/131 75/121/117
s 6
f 59/136/132 60/137/133 76/138/134
f 60/137/133 61/139/135 76/138/134
f 61/139/135 62/140/136 76/138/134
f 62/140/136 63/141/137 76/138/134
f 63/141/137 64/142/138 76/138/134
f 64/142/138 65/143/139 76/138/134
f 65/143/139 66/144/140 76/138/134
f 66/144/140 67/145/141 76/138/134
f 67/145/141 68/146/142 76/138/134
f 68/146/142 69/147/143 76/138/134
f 69/147/143 70/148/144 76/138/134
f 70/148/144 71/149/145 76/138/134
f 71/149/145 72/150/146 76/138/134
f 72/150/146 73/151/147 76/138/134
f 73/151/147 74/152/148 76/138/134
f 74/152/148 59/136/132 76/138/134
s 7
usemtl initialShadingGroup
f 99/153/149 100/154/150 80/155/151 91/156/152
s 8
f 95/157/153 82/158/154 101/159/155 102/160/156
s 9
f 93/161/157 118/162/158 121/163/159 78/164/160 92/165/161
s 10
f 96/166/162 97/167/163 79/168/164 134/169/165 133/170/166
f 104/171/167 96/166/162 133/170/166 132/172/168 81/173/169
s 9
f 94/174/170 84/175/171 119/176/172 118/162/158 93/161/157
s 7
f 97/167/173 111/177/174 105/178/175 79/168/176
s 9
f 85/179/177 109/180/178 110/181/179 77/182/180
f 83/183/181 108/184/182 109/180/178 85/179/177
s 8
f 81/173/183 106/185/184 107/186/185 104/171/186
s 7
f 98/187/187 99/153/149 91/156/152 86/188/188
s 9
f 88/189/189 93/161/157 92/165/161 87/190/190
f 89/191/191 94/174/170 93/161/157 88/189/189
s 8
f 90/192/192 95/157/153 102/160/156 103/193/193
s 10
f 85/179/194 77/182/195 97/167/163 96/166/162
s 7
f 77/182/196 110/194/197 111/177/174 97/167/173
f 87/195/198 92/196/199 99/153/149 98/187/187
f 92/196/199 78/197/200 100/154/150 99/153/149
s 8
f 102/160/156 101/159/155 84/198/201 94/199/202
f 103/193/193 102/160/156 94/199/202 89/200/203
f 104/171/186 107/186/185 108/201/204 83/183/205
s 10
f 83/183/206 85/179/194 96/166/162 104/171/167
s 8
f 107/186/185 106/185/184 90/192/192 103/193/193
f 108/201/204 107/186/185 103/193/193 89/200/203
s 9
f 109/180/178 108/184/182 89/191/191 88/189/189
f 110/181/179 109/180/178 88/189/189 87/190/190
s 7
f 111/177/174 110/194/197 87/195/198 98/187/187
f 105/178/175 111/177/174 98/187/187 86/188/188
s 14
f 114/202/207 113/203/208 116/204/209 115/205/210
s 15
f 113/206/211 112/207/212 117/208/213 116/209/214
s 14
f 121/210/215 120/211/216 123/212/217 122/213/218
s 15
f 120/214/219 119/215/220 124/216/221 123/217/222
s 14
f 127/218/223 126/219/224 129/220/225 128/221/226
s 15
f 126/222/227 125/223/228 130/224/229 129/225/230
s 14
f 91/156/231 80/155/232 114/202/207 115/205/210
f 100/154/233 122/213/218 114/202/207 80/155/232
s 15
f 95/157/234 117/208/213 112/207/212 82/158/235
f 112/207/212 124/216/221 101/159/236 82/158/235
s 14
f 79/168/237 105/178/238 128/221/226 134/169/239
s 15
f 132/172/240 130/224/229 106/185/241 81/173/242
s 14
f 86/188/243 91/156/231 115/205/210 127/218/223
s 15
f 90/192/244 125/223/228 117/208/213 95/157/234
s 14
f 78/197/245 121/210/215 122/213/218 100/154/233
s 15
f 101/159/236 124/216/221 119/215/220 84/198/246
s 14
f 105/178/238 86/188/243 127/218/223 128/221/226
s 15
f 106/185/241 130/224/229 125/223/228 90/192/244
s 9
f 118/162/158 119/176/172 120/226/247
f 118/162/158 120/227/247 121/163/159
s 10
f 133/170/166 134/169/165 131/228/248
f 133/170/166 131/229/248 132/172/168
s 15
f 112/207/212 113/206/211 123/217/222 124/216/221
s 14
f 113/203/208 114/202/207 122/213/218 123/212/217
f 115/205/210 116/204/209 126/219/224 127/218/223
s 15
f 116/209/214 117/208/213 125/223/228 126/222/227
s 14
f 128/221/226 129/220/249 131/228/250 134/169/239
s 15
f 129/225/251 130/224/229 132/172/240 131/229/252
